# xmcd
#
# Track frame offsets: 
#        150
#        21921
#        50353
#        69617
#        94245
#        126354
#        150529
#        166290
#        186586
#        222501
#        247237
#        276639
#        298256
#        315788
#
# Disc length: 4342 seconds
#
# Revision: 0
# Processed by: cddbd v1.5.2PL0 Copyright (c) Steve Scherf et al.
# Submitted via: ExactAudioCopy v0.99pb5
#
DISCID=df10f40e
DTITLE=Siggi Schwarz and friends - Still Got The Blues (A Tribute To Gar
DTITLE=y Moore)
DYEAR=2011
DGENRE=Rock
TTITLE0=Cold Day In Hell
TTITLE1=Still Got The Blues
TTITLE2=Out In The Fields
TTITLE3=Empty Rooms
TTITLE4=Don't Believe A Word
TTITLE5=Parisienne Walkways
TTITLE6=Since I Met You Baby
TTITLE7=Crying In The Shadows
TTITLE8=I Can't Wait Until Tomorrow
TTITLE9=Over The Hills And Far Away
TTITLE10=The Loner
TTITLE11=Midnight Blues
TTITLE12=Walking By Myself
TTITLE13=Johnny Boy
EXTD=
EXTT0=
EXTT1=
EXTT2=
EXTT3=
EXTT4=
EXTT5=
EXTT6=
EXTT7=
EXTT8=
EXTT9=
EXTT10=
EXTT11=
EXTT12=
EXTT13=
PLAYORDER=
